<svg width="19" height="17" viewBox="0 0 19 17" fill="none" xmlns="http://www.w3.org/2000/svg">
<path d="M17.4375 8.58335C17.4407 9.68323 17.1516 10.7682 16.5937 11.75C15.9323 12.9265 14.9154 13.916 13.657 14.6077C12.3986 15.2995 10.9483 15.6662 9.46874 15.6667C8.23136 15.6695 7.01072 15.4126 5.90624 14.9167L2.72879 15.8581C1.83828 16.122 1.02971 15.2541 1.35582 14.3845L2.34375 11.75C1.78587 10.7682 1.49677 9.68323 1.5 8.58335C1.50057 7.26815 1.91307 5.97906 2.6913 4.86048C3.46952 3.74189 4.58273 2.83799 5.90624 2.25002C7.01072 1.75413 8.23136 1.49716 9.46874 1.50002H9.93748C11.8916 1.59585 13.7372 2.32899 15.121 3.55907C16.5049 4.78915 17.3297 6.42973 17.4375 8.16668V8.58335Z" stroke="black" stroke-width="1.6875" stroke-linecap="round" stroke-linejoin="round"/>
</svg>
