<svg width="20" height="19" viewBox="0 0 20 19" fill="none" xmlns="http://www.w3.org/2000/svg">
<path d="M9.10329 1.81663C9.47013 1.07346 10.5299 1.07346 10.8967 1.81663L12.8576 5.78909C13.0031 6.08394 13.2843 6.2884 13.6096 6.33595L17.9962 6.97712C18.8161 7.09696 19.1429 8.1048 18.5493 8.68296L15.3768 11.773C15.1409 12.0027 15.0333 12.3339 15.0889 12.6584L15.8374 17.0226C15.9775 17.8396 15.12 18.4626 14.3864 18.0767L10.4655 16.0148C10.1741 15.8615 9.82593 15.8615 9.53455 16.0148L5.61363 18.0767C4.88 18.4626 4.02245 17.8396 4.16257 17.0226L4.91109 12.6584C4.96675 12.3339 4.85908 12.0027 4.62321 11.773L1.45068 8.68296C0.857085 8.1048 1.18387 7.09696 2.00378 6.97712L6.39037 6.33595C6.71572 6.2884 6.99691 6.08394 7.14245 5.78909L9.10329 1.81663Z" stroke="black" stroke-width="1.5" stroke-linecap="round" stroke-linejoin="round"/>
</svg>
